<?xml version="1.0" encoding="iso-8859-1"?>
<!-- Generator: Adobe Illustrator 16.0.0, SVG Export Plug-In . SVG Version: 6.00 Build 0)  -->
<!DOCTYPE svg PUBLIC "-//W3C//DTD SVG 1.1//EN" "http://www.w3.org/Graphics/SVG/1.1/DTD/svg11.dtd">
<svg version="1.1" id="Capa_1" xmlns="http://www.w3.org/2000/svg" xmlns:xlink="http://www.w3.org/1999/xlink"
	  viewBox="0 0 121.6 121.599" style="enable-background:new 0 0 121.6 121.599;"
	 xml:space="preserve">
<g>
	<path d="M5.1,87.599L35.3,57.4c1.4-1.4,1.1-3.6-0.5-4.7L4.6,33.9c-2-1.2-4.6,0.2-4.6,2.5v49.1C0,88.099,3.2,89.5,5.1,87.599z"/>
	<path d="M86.3,57.3l30.2,30.2c1.9,1.9,5.1,0.6,5.1-2.1v-49c0-2.4-2.6-3.8-4.6-2.5L86.9,52.6C85.199,53.7,84.9,55.9,86.3,57.3z"/>
	<path d="M13.2,27.4l46.1,28.7c1,0.6,2.2,0.6,3.2,0l46.1-28.7c2.6-1.6,1.4-5.5-1.6-5.5H14.7C11.7,21.9,10.6,25.8,13.2,27.4z"/>
	<path d="M72.9,61.3l-10.5,6.5c-1,0.6-2.201,0.6-3.201,0l-10.4-6.5C47.6,60.6,46.1,60.7,45.1,61.7L12.2,94.599
		c-1.9,1.9-0.6,5.101,2.1,5.101H107.4c2.699,0,4-3.2,2.1-5.101L76.6,61.7C75.6,60.8,74.1,60.6,72.9,61.3z"/>
</g>
<g>
</g>
<g>
</g>
<g>
</g>
<g>
</g>
<g>
</g>
<g>
</g>
<g>
</g>
<g>
</g>
<g>
</g>
<g>
</g>
<g>
</g>
<g>
</g>
<g>
</g>
<g>
</g>
<g>
</g>
</svg>
