<?xml version="1.0" encoding="iso-8859-1"?>
<!-- Generator: Adobe Illustrator 16.0.0, SVG Export Plug-In . SVG Version: 6.00 Build 0)  -->
<!DOCTYPE svg PUBLIC "-//W3C//DTD SVG 1.1//EN" "http://www.w3.org/Graphics/SVG/1.1/DTD/svg11.dtd">
<svg version="1.1" id="Capa_1" xmlns="http://www.w3.org/2000/svg" xmlns:xlink="http://www.w3.org/1999/xlink" 
	  viewBox="0 0 125 125" style="enable-background:new 0 0 125 125;" xml:space="preserve">
<g>
	<path d="M38.5,125h48c11,0,20-9,20-20V20c0-11-9-20-20-20h-48c-11,0-20,9-20,20v85C18.5,116,27.5,125,38.5,125z M62.8,113
		c-6.6,0-12-5.6-12-12.2c0-6.6,5.4-12.1,12-12.1c6.601,0,12,5.6,12,12.2C74.8,107.4,69.5,113,62.8,113z M32.5,28.1
		c0-7.2,5.9-13.1,13.1-13.1h33.8c7.199,0,13.1,5.9,13.1,13.1v37.8C92.5,73.1,86.6,79,79.4,79H45.6c-7.2,0-13.1-5.9-13.1-13.1V28.1z"
		/>
</g>
<g>
</g>
<g>
</g>
<g>
</g>
<g>
</g>
<g>
</g>
<g>
</g>
<g>
</g>
<g>
</g>
<g>
</g>
<g>
</g>
<g>
</g>
<g>
</g>
<g>
</g>
<g>
</g>
<g>
</g>
</svg>
